<?xml version="1.0" standalone="no"?>
<!DOCTYPE svg PUBLIC "-//W3C//DTD SVG 1.1//EN" "http://www.w3.org/Graphics/SVG/1.1/DTD/svg11.dtd" >
<svg>
<metadata>
Created by FontForge 20110222 at Mon Sep  5 09:42:22 2011
 By www-data
Copyright (c) 2011 by Alvin Kwan. All rights reserved.
</metadata>
<defs>
<font id="Fabrica" horiz-adv-x="550" >
  <font-face 
    font-family="Fabrica"
    font-weight="400"
    font-stretch="normal"
    units-per-em="1000"
    panose-1="0 0 0 0 0 0 0 0 0 0"
    ascent="750"
    descent="-250"
    x-height="554"
    cap-height="730"
    bbox="-35 -245 1245 1011"
    underline-thickness="50"
    underline-position="-50"
    unicode-range="U+0020-2122"
  />
    <missing-glyph />
    <glyph glyph-name="AE" unicode="&#xc6;" horiz-adv-x="1090" 
d="M580 730h470v-80h-391v-232h346v-80h-347l-1 -258h393v-80h-470v179h-309l-130 -179h-106zM330 259h250v343z" />
    <glyph glyph-name="Aacute" unicode="&#xc1;" horiz-adv-x="702" 
d="M667 0h-97l-64 179h-316l-63 -179h-92l272 730h90zM348 623l-129 -364h259zM375 930h89l-97 -136h-70z" />
    <glyph glyph-name="Acircumflex" unicode="&#xc2;" horiz-adv-x="702" 
d="M667 0h-97l-64 179h-316l-63 -179h-92l272 730h90zM348 623l-129 -364h259zM373 947l127 -164h-65l-85 107l-84 -108h-65l127 165h45z" />
    <glyph glyph-name="Adieresis" unicode="&#xc4;" horiz-adv-x="702" 
d="M667 0h-97l-64 179h-316l-63 -179h-92l272 730h90zM348 623l-129 -364h259zM504 915v-89h-80v89h80zM277 915v-89h-80v89h80z" />
    <glyph glyph-name="Agrave" unicode="&#xc0;" horiz-adv-x="702" 
d="M667 0h-97l-64 179h-316l-63 -179h-92l272 730h90zM348 623l-129 -364h259zM244 930h89l78 -136h-70z" />
    <glyph glyph-name="Aring" unicode="&#xc5;" horiz-adv-x="702" 
d="M667 0h-97l-64 179h-316l-63 -179h-92l253 680c-42 21 -71 63 -71 114c0 73 61 129 134 129s134 -55 134 -129c0 -50 -29 -92 -70 -113zM348 623l-129 -364h259zM426 794c-2 42 -33 75 -75 75c-43 0 -75 -34 -75 -75c0 -44 32 -76 75 -76s75 32 75 76z" />
    <glyph glyph-name="Atilde" unicode="&#xc3;" horiz-adv-x="702" 
d="M570 0h97l-270 730h-90l-272 -730h92l63 179h316zM219 259l129 364l130 -364h-259zM167 818c0 48 22 117 103 117c79 0 106 -72 152 -72c38 0 56 41 56 72h55c0 -52 -49 -117 -109 -117c-101 0 -97 73 -158 73c-40 0 -46 -44 -46 -73h-53z" />
    <glyph glyph-name="B" unicode="B" horiz-adv-x="642" 
d="M473 384c53 -14 129 -84 129 -178c0 -139 -90 -206 -236 -206h-288v730h277c118 0 219 -82 219 -193c0 -62 -52 -133 -101 -153zM360 80c104 0 157 52 157 130c0 75 -61 131 -157 131h-197v-261h197zM356 650h-193v-229h193c73 0 133 51 133 116c0 54 -48 113 -133 113z
" />
    <glyph glyph-name="C" unicode="C" horiz-adv-x="644" 
d="M540 172l64 -63c-57 -85 -152 -116 -245 -116c-156 0 -307 93 -307 372c0 253 151 374 307 374c122 0 191 -43 244 -128l-64 -56c-35 61 -96 104 -178 104c-157 0 -224 -143 -224 -294c0 -156 66 -292 222 -292c84 0 147 39 181 99z" />
    <glyph glyph-name="D" unicode="D" horiz-adv-x="685" 
d="M307 0h-229v730h222c160 0 333 -114 333 -364c0 -275 -172 -366 -326 -366zM309 80c121 0 237 108 237 286c0 183 -127 284 -242 284h-141v-570h146z" />
    <glyph glyph-name="E" unicode="E" horiz-adv-x="588" 
d="M78 730h470v-80h-385v-232h340v-80h-340v-258h385v-80h-470v730z" />
    <glyph glyph-name="Eacute" unicode="&#xc9;" horiz-adv-x="588" 
d="M78 730h470v-80h-385v-232h340v-80h-340v-258h385v-80h-470v730zM307 941h89l-97 -136h-70z" />
    <glyph glyph-name="Ecircumflex" unicode="&#xca;" horiz-adv-x="588" 
d="M78 730h470v-80h-385v-232h340v-80h-340v-258h385v-80h-470v730zM336 1011l127 -164h-66l-85 107l-84 -108h-65l127 165h46z" />
    <glyph glyph-name="Edieresis" unicode="&#xcb;" horiz-adv-x="588" 
d="M78 730h470v-80h-385v-232h340v-80h-340v-258h385v-80h-470v730zM240 921v-89h-80v89h80zM467 921v-89h-80v89h80z" />
    <glyph glyph-name="Egrave" unicode="&#xc8;" horiz-adv-x="588" 
d="M78 730h470v-80h-385v-232h340v-80h-340v-258h385v-80h-470v730zM230 946h89l78 -136h-70z" />
    <glyph glyph-name="Eth" unicode="&#xd0;" horiz-adv-x="733" 
d="M340 730c168 0 341 -114 341 -364c0 -275 -172 -366 -326 -366h-229v325h-84v80h84v325h214zM385 405v-80h-174v-245h146c121 0 237 108 237 286c0 183 -127 284 -242 284h-141v-245h174z" />
    <glyph glyph-name="Euro" unicode="&#x20ac;" horiz-adv-x="707" 
d="M391 485v-66h-186c-2 -18 -3 -36 -3 -54c0 -15 1 -30 2 -44h152v-66h-142c25 -104 90 -180 208 -180c84 0 147 39 181 99l64 -65c-57 -85 -152 -116 -245 -116c-134 0 -263 68 -298 262h-84v66h76c-1 14 -1 29 -1 44c0 19 1 36 2 54h-77v66h88c39 171 165 254 294 254
c122 0 191 -43 244 -128l-64 -58c-35 61 -96 104 -178 104c-114 0 -179 -74 -207 -172h174z" />
    <glyph glyph-name="F" unicode="F" horiz-adv-x="573" 
d="M78 730h455v-80h-370v-232h325v-80h-325v-338h-85v730z" />
    <glyph glyph-name="G" unicode="G" horiz-adv-x="703" 
d="M367 390h264v-390h-59l-19 73c-41 -50 -104 -80 -180 -80c-164 0 -321 93 -321 372c0 253 164 374 326 374c122 0 188 -43 241 -128l-64 -56c-35 61 -93 104 -175 104c-163 0 -243 -143 -243 -294c0 -156 79 -292 241 -292c60 0 172 44 172 126v113h-183v78z" />
    <glyph glyph-name="H" unicode="H" horiz-adv-x="713" 
d="M626 730v-730h-85v338h-378v-338h-85v730h85v-312h378v312h85z" />
    <glyph glyph-name="I" unicode="I" horiz-adv-x="241" 
d="M163 0h-85v730h85v-730z" />
    <glyph glyph-name="Iacute" unicode="&#xcd;" horiz-adv-x="241" 
d="M162 730v-730h-85v730h85zM151 941h89l-97 -136h-70z" />
    <glyph glyph-name="Icircumflex" unicode="&#xce;" horiz-adv-x="241" 
d="M159 731v-730h-85v730h85zM142 947l127 -164h-65l-85 107l-84 -108h-65l127 165h45z" />
    <glyph glyph-name="Idieresis" unicode="&#xcf;" horiz-adv-x="241" 
d="M159 0h-85v730h85v-730zM47 921v-89h-80v89h80zM274 921v-89h-80v89h80z" />
    <glyph glyph-name="Igrave" unicode="&#xcc;" horiz-adv-x="241" 
d="M165 730v-730h-85v730h85zM0 946h89l78 -136h-70z" />
    <glyph glyph-name="J" unicode="J" horiz-adv-x="441" 
d="M35 21l1 88c43 -22 84 -36 134 -36c68 0 111 55 111 154v423h-131v80h217v-512c0 -151 -70 -225 -203 -225c-48 0 -92 9 -129 28z" />
    <glyph glyph-name="K" unicode="K" horiz-adv-x="627" 
d="M480 730h105l-251 -287l258 -443h-95l-220 378l-114 -131v-247h-85v730h85v-364z" />
    <glyph glyph-name="L" unicode="L" horiz-adv-x="583" 
d="M548 0h-470v730h85v-650h385v-80z" />
    <glyph glyph-name="M" unicode="M" horiz-adv-x="813" 
d="M72 730h88l244 -491l241 491h90v-730h-87v564l-194 -397h-98l-200 400v-567h-84v730z" />
    <glyph glyph-name="N" unicode="N" horiz-adv-x="703" 
d="M155 0h-83v730h95l381 -613v613h83v-730h-101l-375 604v-604z" />
    <glyph glyph-name="Ntilde" unicode="&#xd1;" horiz-adv-x="703" 
d="M188 818c0 48 22 117 103 117c79 0 106 -72 152 -72c38 0 56 41 56 72h55c0 -52 -49 -117 -109 -117c-101 0 -97 73 -158 73c-40 0 -46 -44 -46 -73h-53zM72 0h83v604l375 -604h101v730h-83v-613l-381 613h-95v-730z" />
    <glyph glyph-name="O" unicode="O" horiz-adv-x="718" 
d="M358 739c161 0 308 -117 308 -371c0 -283 -148 -375 -308 -375c-159 0 -306 98 -306 377c0 253 146 369 306 369zM358 76c160 0 220 133 220 292c0 149 -58 288 -218 288c-161 0 -220 -135 -220 -286c0 -156 58 -294 218 -294z" />
    <glyph glyph-name="OE" unicode="&#x152;" horiz-adv-x="1087" 
d="M1047 650h-385v-232h340v-80h-340v-258h385v-80h-470v71c-58 -63 -137 -87 -219 -87c-159 0 -306 98 -306 377c0 253 146 369 306 369c82 0 161 -31 219 -96v96h470v-80zM358 67c160 0 220 133 220 292c0 149 -58 288 -218 288c-161 0 -220 -135 -220 -286
c0 -156 58 -294 218 -294z" />
    <glyph glyph-name="Oacute" unicode="&#xd3;" horiz-adv-x="718" 
d="M358 739c161 0 308 -117 308 -371c0 -283 -148 -375 -308 -375c-159 0 -306 98 -306 377c0 253 146 369 306 369zM358 76c160 0 220 133 220 292c0 149 -58 288 -218 288c-161 0 -220 -135 -220 -286c0 -156 58 -294 218 -294zM353 930h89l-97 -136h-70z" />
    <glyph glyph-name="Ocircumflex" unicode="&#xd4;" horiz-adv-x="718" 
d="M358 739c161 0 308 -117 308 -371c0 -283 -148 -375 -308 -375c-159 0 -306 98 -306 377c0 253 146 369 306 369zM358 76c160 0 220 133 220 292c0 149 -58 288 -218 288c-161 0 -220 -135 -220 -286c0 -156 58 -294 218 -294zM382 947l127 -164h-65l-85 107l-84 -108
h-65l127 165h45z" />
    <glyph glyph-name="Odieresis" unicode="&#xd6;" horiz-adv-x="718" 
d="M358 739c161 0 308 -117 308 -371c0 -283 -148 -375 -308 -375c-159 0 -306 98 -306 377c0 253 146 369 306 369zM358 76c160 0 220 133 220 292c0 149 -58 288 -218 288c-161 0 -220 -135 -220 -286c0 -156 58 -294 218 -294zM285 927v-89h-80v89h80zM512 927v-89h-80
v89h80z" />
    <glyph glyph-name="Ograve" unicode="&#xd2;" horiz-adv-x="718" 
d="M358 739c161 0 308 -117 308 -371c0 -283 -148 -375 -308 -375c-159 0 -306 98 -306 377c0 253 146 369 306 369zM358 76c160 0 220 133 220 292c0 149 -58 288 -218 288c-161 0 -220 -135 -220 -286c0 -156 58 -294 218 -294zM276 930h89l78 -136h-70z" />
    <glyph glyph-name="Otilde" unicode="&#xd5;" horiz-adv-x="718" 
d="M176 820c0 48 22 117 103 117c79 0 106 -72 152 -72c38 0 56 41 56 72h55c0 -52 -49 -117 -109 -117c-101 0 -97 73 -158 73c-40 0 -46 -44 -46 -73h-53zM358 739c161 0 308 -117 308 -371c0 -283 -148 -375 -308 -375c-159 0 -306 98 -306 377c0 253 146 369 306 369z
M358 76c160 0 220 133 220 292c0 149 -58 288 -218 288c-161 0 -220 -135 -220 -286c0 -156 58 -294 218 -294z" />
    <glyph glyph-name="P" unicode="P" horiz-adv-x="626" 
d="M164 298v-298h-86v730h267c132 0 229 -91 229 -209c0 -127 -99 -223 -240 -223h-170zM164 378h180c87 0 145 60 145 140c0 75 -70 132 -149 132h-176v-272z" />
    <glyph glyph-name="Q" unicode="Q" horiz-adv-x="710" 
d="M354 739c157 0 304 -122 304 -376c0 -245 -111 -343 -242 -365c3 -69 30 -107 97 -107c60 0 105 13 105 13v-75s-36 -16 -105 -16c-176 0 -181 154 -180 181c-148 7 -281 104 -281 371c0 253 146 374 302 374zM354 73c157 0 219 131 219 290c0 149 -61 296 -217 296
c-157 0 -219 -143 -219 -294c0 -156 61 -292 217 -292z" />
    <glyph glyph-name="R" unicode="R" horiz-adv-x="630" 
d="M404 330l191 -330h-87l-185 320h-159v-320h-86v730h264c126 0 214 -87 214 -201c0 -92 -63 -172 -152 -199zM164 399h178c78 0 129 57 129 127c0 71 -61 125 -134 125h-173v-252z" />
    <glyph glyph-name="S" unicode="S" horiz-adv-x="614" 
d="M291 -5c-109 0 -186 32 -246 90v98c60 -62 148 -106 245 -106c119 0 195 54 195 136c0 66 -73 114 -186 124c-140 13 -247 60 -247 190s103 212 246 212c105 0 167 -30 222 -74v-90c-70 58 -153 85 -224 85c-92 0 -161 -55 -161 -125c0 -63 53 -104 179 -118
c144 -16 255 -82 255 -202c0 -135 -101 -220 -278 -220z" />
    <glyph glyph-name="T" unicode="T" horiz-adv-x="627" 
d="M356 0h-85v650h-236v80h557v-80h-236v-650z" />
    <glyph glyph-name="Thorn" unicode="&#xde;" horiz-adv-x="626" 
d="M164 149v-149h-86v730h86v-149h181c132 0 229 -91 229 -209c0 -127 -99 -223 -240 -223h-170zM164 229h180c87 0 145 60 145 140c0 75 -70 132 -149 132h-176v-272z" />
    <glyph glyph-name="U" unicode="U" horiz-adv-x="704" 
d="M352 -7c-154 0 -274 105 -274 261v476h88v-470c0 -101 92 -182 186 -182c95 0 195 81 195 182v470h85v-476c0 -156 -126 -261 -280 -261z" />
    <glyph glyph-name="Uacute" unicode="&#xda;" horiz-adv-x="704" 
d="M352 -7c-154 0 -274 105 -274 261v476h88v-470c0 -101 92 -182 186 -182c95 0 195 81 195 182v470h85v-476c0 -156 -126 -261 -280 -261zM349 931h89l-97 -136h-70z" />
    <glyph glyph-name="Ucircumflex" unicode="&#xdb;" horiz-adv-x="704" 
d="M352 -7c-154 0 -274 105 -274 261v476h88v-470c0 -101 92 -182 186 -182c95 0 195 81 195 182v470h85v-476c0 -156 -126 -261 -280 -261zM382 947l127 -164h-65l-85 107l-84 -108h-65l127 165h45z" />
    <glyph glyph-name="Udieresis" unicode="&#xdc;" horiz-adv-x="704" 
d="M352 -7c-154 0 -274 105 -274 261v476h88v-470c0 -101 92 -182 186 -182c95 0 195 81 195 182v470h85v-476c0 -156 -126 -261 -280 -261zM281 917v-89h-80v89h80zM508 917v-89h-80v89h80z" />
    <glyph glyph-name="Ugrave" unicode="&#xd9;" horiz-adv-x="704" 
d="M352 -7c-154 0 -274 105 -274 261v476h88v-470c0 -101 92 -182 186 -182c95 0 195 81 195 182v470h85v-476c0 -156 -126 -261 -280 -261zM272 931h89l78 -136h-70z" />
    <glyph glyph-name="V" unicode="V" horiz-adv-x="686" 
d="M35 730h96l213 -623l214 623h93l-264 -730h-90z" />
    <glyph glyph-name="W" unicode="W" horiz-adv-x="943" 
d="M808 730h100l-204 -730h-92l-142 574l-141 -574h-92l-202 730h100l149 -616l140 616h95l138 -616z" />
    <glyph glyph-name="X" unicode="X" horiz-adv-x="611" 
d="M128 0h-93l225 363v1l-214 366h97l163 -290l172 290h95l-223 -364l226 -366h-101l-174 294z" />
    <glyph glyph-name="Y" unicode="Y" horiz-adv-x="659" 
d="M368 0h-85v320l-248 410h96l198 -327l204 327h91l-256 -410v-320z" />
    <glyph glyph-name="Yacute" unicode="&#xdd;" horiz-adv-x="659" 
d="M368 0h-85v320l-248 410h96l198 -327l204 327h91l-256 -410v-320zM324 937h89l-97 -136h-70z" />
    <glyph glyph-name="Ydieresis" unicode="&#x178;" horiz-adv-x="681" 
d="M379 0h-85v320l-248 410h96l198 -327l204 327h91l-256 -410v-320zM267 879v-89h-81v89h81zM494 879v-89h-80v89h80z" />
    <glyph glyph-name="Z" unicode="Z" horiz-adv-x="583" 
d="M40 0v78l409 574h-409v78h503v-78l-413 -574h413v-78h-503z" />
    <glyph glyph-name="a" unicode="a" 
d="M476 146c0 -47 18 -80 44 -99l-52 -56c-30 16 -49 47 -60 76c-41 -39 -105 -74 -166 -74c-118 0 -202 46 -202 144c0 88 66 168 207 171c42 1 109 0 150 -2c0 35 1 62 1 66c-2 78 -48 118 -99 118c-73 0 -153 -27 -213 -66v82c60 34 133 60 214 60
c101 0 176 -68 176 -198v-222zM246 62c48 0 107 30 153 70c-2 35 -3 76 -3 115c-31 1 -87 1 -146 -1c-100 -3 -129 -59 -129 -101c0 -63 48 -83 125 -83z" />
    <glyph glyph-name="aacute" unicode="&#xe1;" 
d="M476 146c0 -47 18 -80 44 -99l-52 -56c-30 16 -49 47 -60 76c-41 -39 -105 -74 -166 -74c-118 0 -202 46 -202 144c0 88 66 168 207 171c42 1 109 0 150 -2c0 35 1 62 1 66c-2 78 -48 118 -99 118c-73 0 -153 -27 -213 -66v82c60 34 133 60 214 60
c101 0 176 -68 176 -198v-222zM246 62c48 0 107 30 153 70c-2 35 -3 76 -3 115c-31 1 -87 1 -146 -1c-100 -3 -129 -59 -129 -101c0 -63 48 -83 125 -83zM275 816h89l-97 -136h-70z" />
    <glyph glyph-name="acircumflex" unicode="&#xe2;" 
d="M476 146c0 -47 18 -80 44 -99l-52 -56c-30 16 -49 47 -60 76c-41 -39 -105 -74 -166 -74c-118 0 -202 46 -202 144c0 88 66 168 207 171c42 1 109 0 150 -2c0 35 1 62 1 66c-2 78 -48 118 -99 118c-73 0 -153 -27 -213 -66v82c60 34 133 60 214 60
c101 0 176 -68 176 -198v-222zM246 62c48 0 107 30 153 70c-2 35 -3 76 -3 115c-31 1 -87 1 -146 -1c-100 -3 -129 -59 -129 -101c0 -63 48 -83 125 -83zM303 816l127 -164h-65l-85 107l-84 -108h-65l127 165h45z" />
    <glyph glyph-name="adieresis" unicode="&#xe4;" 
d="M476 146c0 -47 18 -80 44 -99l-52 -56c-30 16 -49 47 -60 76c-41 -39 -105 -74 -166 -74c-118 0 -202 46 -202 144c0 88 66 168 207 171c42 1 109 0 150 -2c0 35 1 62 1 66c-2 78 -48 118 -99 118c-73 0 -153 -27 -213 -66v82c60 34 133 60 214 60
c101 0 176 -68 176 -198v-222zM246 62c48 0 107 30 153 70c-2 35 -3 76 -3 115c-31 1 -87 1 -146 -1c-100 -3 -129 -59 -129 -101c0 -63 48 -83 125 -83zM207 756v-89h-80v89h80zM434 756v-89h-80v89h80z" />
    <glyph glyph-name="ae" unicode="&#xe6;" horiz-adv-x="914" 
d="M873 306v-38h-388c3 -149 66 -200 173 -200c80 0 142 18 193 47v-83c-50 -22 -119 -39 -195 -39c-95 0 -171 34 -214 109c-7 -11 -17 -22 -27 -35c-53 -51 -108 -74 -169 -74c-132 0 -206 70 -206 174c0 106 84 167 209 170c45 1 119 -2 158 -4c2 80 -20 159 -119 159
c-67 0 -134 -13 -197 -36v75c56 21 107 35 198 35c79 0 139 -35 170 -91c44 59 109 91 181 91c131 0 233 -103 233 -260zM407 194v77c-28 1 -73 4 -138 2c-95 -3 -148 -47 -148 -102c0 -58 46 -111 129 -111c92 0 157 58 157 134zM484 331h305c-5 77 -72 162 -154 162
c-85 0 -137 -73 -151 -162z" />
    <glyph glyph-name="agrave" unicode="&#xe0;" 
d="M476 146c0 -47 18 -80 44 -99l-52 -56c-30 16 -49 47 -60 76c-41 -39 -105 -74 -166 -74c-118 0 -202 46 -202 144c0 88 66 168 207 171c42 1 109 0 150 -2c0 35 1 62 1 66c-2 78 -48 118 -99 118c-73 0 -153 -27 -213 -66v82c60 34 133 60 214 60
c101 0 176 -68 176 -198v-222zM246 62c48 0 107 30 153 70c-2 35 -3 76 -3 115c-31 1 -87 1 -146 -1c-100 -3 -129 -59 -129 -101c0 -63 48 -83 125 -83zM197 816h89l78 -136h-70z" />
    <glyph glyph-name="ampersand" unicode="&#x26;" horiz-adv-x="699" 
d="M644 69v-69h-41c-37 0 -72 20 -94 47l-32 38c-42 -54 -107 -91 -191 -91c-146 0 -231 84 -231 212c0 90 65 160 150 211l-30 38c-26 33 -49 73 -49 134c0 75 66 150 171 150c96 0 161 -83 161 -149v-14h-74v12c0 42 -44 76 -96 76s-87 -38 -87 -80c0 -39 20 -70 38 -92
l234 -294c22 51 61 87 91 101c19 9 39 10 56 10h24v-67h-25c-15 0 -24 -2 -36 -8c-24 -12 -54 -45 -69 -87l46 -57c14 -17 34 -20 47 -21h37zM292 67c60 0 114 22 147 65l-190 231c-77 -45 -114 -88 -114 -161c0 -74 49 -135 157 -135z" />
    <glyph glyph-name="aring" unicode="&#xe5;" 
d="M476 146c0 -47 18 -80 44 -99l-52 -56c-30 16 -49 47 -60 76c-41 -39 -105 -74 -166 -74c-118 0 -202 46 -202 144c0 88 66 168 207 171c42 1 109 0 150 -2c0 35 1 62 1 66c-2 78 -48 118 -99 118c-73 0 -153 -27 -213 -66v82c60 34 133 60 214 60
c101 0 176 -68 176 -198v-222zM281 921c73 0 134 -55 134 -129c1 -74 -64 -129 -134 -129c-72 0 -134 55 -134 129c0 73 61 129 134 129zM246 62c48 0 107 30 153 70c-2 35 -3 76 -3 115c-31 1 -87 1 -146 -1c-100 -3 -129 -59 -129 -101c0 -63 48 -83 125 -83zM281 716
c43 0 75 32 75 76c-2 42 -33 75 -75 75c-43 0 -75 -34 -75 -75c0 -44 32 -76 75 -76z" />
    <glyph glyph-name="asciicircum" unicode="^" horiz-adv-x="641" 
d="M344 730l227 -309h-81l-171 236l-169 -238h-80l226 311h48z" />
    <glyph glyph-name="asciitilde" unicode="~" horiz-adv-x="780" 
d="M70 209c0 104 33 257 182 257c141 0 177 -177 262 -177c61 0 112 78 112 177h84c0 -139 -87 -257 -193 -257c-155 0 -160 175 -266 175c-76 0 -97 -105 -97 -175h-84z" />
    <glyph glyph-name="asterisk" unicode="*" horiz-adv-x="481" 
d="M285 592l141 -89v-56l-156 98v-151h-55v153l-160 -100l1 56l140 88l-141 89v57l160 -101v144h55v-142l156 99v-57z" />
    <glyph glyph-name="at" unicode="@" horiz-adv-x="765" 
d="M653 28v-76c-59 -26 -125 -41 -193 -41c-192 0 -405 119 -405 414c0 306 202 409 370 409c184 0 285 -99 285 -258v-335h-52l-20 50c-37 -38 -97 -61 -157 -61c-122 0 -192 76 -192 168c0 69 36 144 133 176c59 20 131 15 213 15v26c0 91 -113 152 -215 152
c-137 0 -282 -109 -282 -340c0 -250 182 -345 332 -345c58 0 132 16 183 46zM616 257c21 30 22 62 22 163c-97 0 -170 9 -214 -17c-41 -25 -63 -71 -63 -103c0 -56 55 -104 137 -104c47 0 91 22 118 61z" />
    <glyph glyph-name="atilde" unicode="&#xe3;" 
d="M476 146c0 -47 18 -80 44 -99l-52 -56c-30 16 -49 47 -60 76c-41 -39 -105 -74 -166 -74c-118 0 -202 46 -202 144c0 88 66 168 207 171c42 1 109 0 150 -2c0 35 1 62 1 66c-2 78 -48 118 -99 118c-73 0 -153 -27 -213 -66v82c60 34 133 60 214 60
c101 0 176 -68 176 -198v-222zM246 62c48 0 107 30 153 70c-2 35 -3 76 -3 115c-31 1 -87 1 -146 -1c-100 -3 -129 -59 -129 -101c0 -63 48 -83 125 -83zM97 677c0 48 22 117 103 117c79 0 106 -72 152 -72c38 0 56 41 56 72h55c0 -52 -49 -117 -109 -117
c-101 0 -97 73 -158 73c-40 0 -46 -44 -46 -73h-53z" />
    <glyph glyph-name="b" unicode="b" horiz-adv-x="584" 
d="M72 60v720h83v-271c35 37 77 57 141 57c135 0 243 -107 243 -284c0 -193 -109 -289 -246 -289c-115 0 -171 33 -221 67zM293 66c111 0 163 101 163 219c0 105 -57 209 -167 209c-62 0 -99 -20 -134 -65v-327c35 -22 83 -36 138 -36z" />
    <glyph glyph-name="backslash" unicode="\" horiz-adv-x="488" 
d="M9 780h83l380 -895h-81z" />
    <glyph glyph-name="bar" unicode="|" horiz-adv-x="276" 
d="M176 780v-895h-76v895h76z" />
    <glyph glyph-name="braceleft" unicode="{" horiz-adv-x="396" 
d="M341 -115h-52c-50 0 -78 8 -100 30c-21 21 -30 45 -30 97v188c0 27 -22 46 -34 59c-9 10 -25 17 -45 17h-25v64h25c20 0 36 7 45 16c12 13 34 32 34 60v187c0 52 9 77 30 98c22 21 66 29 116 29h36v-64h-22c-36 0 -66 -3 -75 -13c-10 -12 -12 -26 -12 -63v-184
c0 -56 -48 -80 -86 -98c38 -19 86 -43 86 -99v-184c0 -37 2 -51 12 -63c9 -9 39 -13 75 -13h22v-64z" />
    <glyph glyph-name="braceright" unicode="}" horiz-adv-x="396" 
d="M107 -115h-52v62l22 2c36 0 66 4 75 13c10 12 12 26 12 63v184c0 56 48 80 86 99c-38 18 -86 42 -86 98v184c0 37 -2 51 -12 63c-9 10 -39 13 -75 13l-22 2v62h36c50 0 94 -8 116 -29c21 -21 30 -46 30 -98v-187c0 -28 22 -47 34 -60c9 -9 25 -16 45 -16h25v-64h-25
c-20 0 -36 -7 -45 -17c-12 -13 -34 -32 -34 -59v-188c0 -52 -9 -76 -30 -97c-22 -22 -50 -30 -100 -30z" />
    <glyph glyph-name="bracketleft" unicode="[" horiz-adv-x="364" 
d="M296 -55v-60h-224v845h224v-59h-151v-726h151z" />
    <glyph glyph-name="bracketright" unicode="]" horiz-adv-x="364" 
d="M68 -115v60h151v726h-151v59h224v-845h-224z" />
    <glyph glyph-name="bullet" unicode="&#x2022;" horiz-adv-x="371" 
d="M55 326c0 72 59 131 131 131s130 -59 130 -131s-58 -130 -130 -130s-131 58 -131 130z" />
    <glyph glyph-name="c" unicode="c" horiz-adv-x="525" 
d="M429 122l58 -58c-44 -49 -120 -71 -192 -71c-167 0 -250 106 -250 287c0 174 114 286 250 286c72 0 142 -30 188 -82l-60 -55c-25 31 -69 62 -126 62c-105 0 -169 -88 -169 -210c0 -127 63 -215 167 -215c58 0 110 25 134 56z" />
    <glyph glyph-name="colon" unicode=":" horiz-adv-x="286" 
d="M194 112v-112h-102v112h102zM194 517v-112h-102v112h102z" />
    <glyph glyph-name="comma" unicode="," horiz-adv-x="280" 
d="M123 108h97l-100 -214h-57z" />
    <glyph glyph-name="copyright" unicode="&#xa9;" horiz-adv-x="850" 
d="M425 730c202 0 365 -163 365 -365s-163 -365 -365 -365s-365 163 -365 365s163 365 365 365zM425 61c169 0 304 135 304 304s-135 304 -304 304s-304 -135 -304 -304s135 -304 304 -304zM528 256l40 -41c-30 -35 -84 -50 -134 -50c-117 0 -176 75 -176 201
c0 122 81 201 176 201c50 0 100 -21 131 -58l-41 -39c-18 22 -49 44 -88 44c-75 0 -119 -61 -119 -148c0 -88 44 -150 117 -150c40 0 77 18 94 40z" />
    <glyph glyph-name="d" unicode="d" horiz-adv-x="594" 
d="M288 566c55 0 106 -16 148 -59v273h83v-780h-68l-13 41c-42 -33 -96 -48 -149 -48c-135 0 -244 96 -244 288c0 177 109 285 243 285zM296 494c-112 0 -167 -109 -167 -215c0 -116 50 -212 161 -212c62 0 116 19 146 55v302c-26 44 -73 70 -140 70z" />
    <glyph glyph-name="degree" unicode="&#xb0;" horiz-adv-x="450" 
d="M385 583c1 -88 -76 -155 -161 -155c-86 0 -160 67 -160 155s73 155 160 155c88 0 161 -66 161 -155zM318 583c-3 53 -41 94 -94 94s-93 -43 -93 -94c0 -54 40 -94 93 -94c54 0 94 40 94 94z" />
    <glyph glyph-name="divide" unicode="&#xf7;" horiz-adv-x="634" 
d="M579 394v-78h-524v78h524zM362 605v-100h-90v100h90zM362 199v-100h-90v100h90z" />
    <glyph glyph-name="dollar" unicode="$" horiz-adv-x="542" 
d="M295 22v-94h-61v95c-81 5 -137 37 -189 88v94c53 -57 115 -98 189 -105v243c-101 13 -175 76 -175 179c0 108 78 176 175 187v73h61v-73c68 -6 121 -32 167 -68v-83c-56 46 -118 68 -167 75v-219c123 -3 202 -94 202 -194c0 -103 -77 -185 -202 -198zM423 218
c0 51 -45 113 -128 122v-238c79 11 128 58 128 116zM129 530c0 -49 35 -95 105 -110v214c-63 -8 -105 -44 -105 -104z" />
    <glyph glyph-name="e" unicode="e" horiz-adv-x="559" 
d="M518 272h-391c2 -152 67 -204 175 -204c80 0 143 18 194 47v-83c-50 -22 -120 -39 -196 -39c-151 0 -255 89 -255 287c0 180 108 286 239 286s234 -99 234 -256v-38zM284 493c-84 0 -137 -71 -152 -158h307c-5 77 -73 158 -155 158z" />
    <glyph glyph-name="eacute" unicode="&#xe9;" horiz-adv-x="556" 
d="M515 272h-388c2 -152 65 -204 173 -204c80 0 142 18 193 47v-83c-50 -22 -119 -39 -195 -39c-151 0 -253 89 -253 287c0 180 106 286 237 286s233 -99 233 -256v-38zM282 493c-84 0 -135 -71 -150 -158h304c-5 77 -72 158 -154 158zM273 816h89l-97 -136h-70z" />
    <glyph glyph-name="ecircumflex" unicode="&#xea;" horiz-adv-x="556" 
d="M515 272h-388c2 -152 65 -204 173 -204c80 0 142 18 193 47v-83c-50 -22 -119 -39 -195 -39c-151 0 -253 89 -253 287c0 180 106 286 237 286s233 -99 233 -256v-38zM282 493c-84 0 -135 -71 -150 -158h304c-5 77 -72 158 -154 158zM306 816l127 -164h-65l-85 107
l-84 -108h-65l127 165h45z" />
    <glyph glyph-name="edieresis" unicode="&#xeb;" horiz-adv-x="556" 
d="M515 272h-388c2 -152 65 -204 173 -204c80 0 142 18 193 47v-83c-50 -22 -119 -39 -195 -39c-151 0 -253 89 -253 287c0 180 106 286 237 286s233 -99 233 -256v-38zM282 493c-84 0 -135 -71 -150 -158h304c-5 77 -72 158 -154 158zM426 756v-89h-80v89h80zM199 756v-89
h-80v89h80z" />
    <glyph glyph-name="egrave" unicode="&#xe8;" horiz-adv-x="556" 
d="M515 272h-388c2 -152 65 -204 173 -204c80 0 142 18 193 47v-83c-50 -22 -119 -39 -195 -39c-151 0 -253 89 -253 287c0 180 106 286 237 286s233 -99 233 -256v-38zM282 493c-84 0 -135 -71 -150 -158h304c-5 77 -72 158 -154 158zM193 816h89l78 -136h-70z" />
    <glyph glyph-name="eight" unicode="8" horiz-adv-x="561" 
d="M287 737c107 0 209 -61 209 -192c0 -73 -34 -124 -81 -154c62 -35 101 -97 101 -184c0 -141 -121 -214 -235 -214c-125 0 -236 73 -236 214c0 87 41 149 104 183c-46 31 -78 81 -78 155c0 132 98 192 216 192zM281 67c86 0 149 56 149 140c0 77 -46 144 -139 147h-7
c-92 -1 -154 -73 -154 -146c0 -76 54 -141 151 -141zM284 422h5c72 2 130 50 130 123c0 70 -57 125 -131 125c-90 0 -140 -60 -140 -124c0 -66 48 -121 129 -124h7z" />
    <glyph glyph-name="ellipsis" unicode="&#x2026;" horiz-adv-x="660" 
d="M605 97v-97h-88v97h88zM143 97v-97h-88v97h88zM377 97v-97h-88v97h88z" />
    <glyph glyph-name="emdash" unicode="&#x2014;" horiz-adv-x="1069" 
d="M1014 385v-78h-959v78h959z" />
    <glyph glyph-name="endash" unicode="&#x2013;" horiz-adv-x="658" 
d="M603 384v-78h-548v78h548z" />
    <glyph glyph-name="equal" unicode="=" horiz-adv-x="690" 
d="M635 500v-70h-580v70h580zM635 279v-70h-580v70h580z" />
    <glyph glyph-name="exclam" unicode="!" horiz-adv-x="280" 
d="M102 730h92l-6 -547h-80zM197 0v112h-102v-112h102z" />
    <glyph glyph-name="f" unicode="f" horiz-adv-x="373" 
d="M351 763v-77c-24 9 -47 16 -81 16c-51 0 -86 -33 -86 -110v-36h124v-73h-124v-483h-83v483h-59v73h59v43c0 115 55 177 162 177c45 0 69 -9 88 -13z" />
    <glyph glyph-name="five" unicode="5" 
d="M51 162h80c0 -57 66 -95 133 -95c96 0 161 66 161 179c0 95 -61 165 -144 165c-73 0 -106 -20 -134 -54l-77 -1l37 374h364v-75h-292l-18 -218c31 31 59 48 132 48c120 0 214 -90 214 -239c0 -159 -88 -253 -245 -253c-127 0 -211 63 -211 169z" />
    <glyph glyph-name="four" unicode="4" horiz-adv-x="560" 
d="M449 0h-81v198h-343v77l343 454v1h81v-455h86v-77h-86v-198zM121 275h247v329z" />
    <glyph glyph-name="g" unicode="g" horiz-adv-x="576" 
d="M275 566c44 0 81 -10 110 -25c10 28 32 71 75 71c49 0 96 -17 96 -17v-59s-68 20 -91 13c-13 -4 -25 -25 -33 -43c35 -37 51 -84 51 -126c0 -98 -61 -184 -208 -184c-39 0 -71 6 -98 16c-25 -17 -45 -31 -45 -55c0 -28 31 -49 63 -54c53 -8 139 -8 206 -16
c66 -8 141 -49 141 -142c0 -109 -127 -168 -262 -168c-158 0 -250 62 -250 147c0 61 31 103 87 133c-32 21 -55 50 -55 94c0 39 32 68 64 91c-39 35 -57 84 -57 138c0 82 60 186 206 186zM190 35c-4 0 -8 0 -12 1c-50 -30 -75 -55 -75 -101c0 -57 68 -84 173 -84
s189 33 189 95c0 43 -36 70 -85 75c-55 6 -135 8 -190 14zM275 260c92 0 134 58 134 120c0 60 -42 120 -134 120s-133 -60 -133 -120c0 -62 43 -120 133 -120z" />
    <glyph glyph-name="grave" unicode="`" horiz-adv-x="303" 
d="M78 800h89l78 -136h-70z" />
    <glyph glyph-name="greater" unicode="&#x3e;" horiz-adv-x="507" 
d="M452 326l-397 -201v82l310 159l-310 158v83l397 -202v-79z" />
    <glyph glyph-name="h" unicode="h" horiz-adv-x="586" 
d="M331 493c-68 0 -132 -31 -173 -78v-415h-83v780h83v-287c47 45 113 74 175 74c151 0 198 -111 198 -263v-304h-83v305c0 112 -42 188 -117 188z" />
    <glyph glyph-name="hyphen" unicode="-" horiz-adv-x="431" 
d="M376 391v-80h-321v80h321z" />
    <glyph glyph-name="i" unicode="i" horiz-adv-x="237" 
d="M162 0h-83v556h83v-556zM77 679l-2 1v83h90v-84h-88z" />
    <glyph glyph-name="iacute" unicode="&#xed;" horiz-adv-x="237" 
d="M157 0h-82v556h82v-556zM110 813h89l-97 -136h-70z" />
    <glyph glyph-name="icircumflex" unicode="&#xee;" horiz-adv-x="237" 
d="M159 0h-82v556h82v-556zM141 813l127 -164h-65l-85 107l-84 -108h-65l127 165h45z" />
    <glyph glyph-name="idieresis" unicode="&#xef;" horiz-adv-x="237" 
d="M160 0h-82v556h82v-556zM45 753v-89h-80v89h80zM272 753v-89h-80v89h80z" />
    <glyph glyph-name="igrave" unicode="&#xec;" horiz-adv-x="237" 
d="M159 0h-82v556h82v-556zM35 813h89l78 -136h-70z" />
    <glyph glyph-name="j" unicode="j" horiz-adv-x="381" 
d="M40 -214v78c24 -9 56 -15 99 -15c42 0 87 24 87 110v524h-96v73h179v-604c0 -130 -79 -177 -165 -177c-51 0 -85 7 -104 11zM309 642h-82v78h82v-78z" />
    <glyph glyph-name="k" unicode="k" horiz-adv-x="559" 
d="M489 556l-220 -238l260 -318h-101l-213 259l-57 -62v-197h-83v780h83v-476l234 252h97z" />
    <glyph glyph-name="l" unicode="l" horiz-adv-x="290" 
d="M244 0h-46c-78 0 -123 56 -123 143v637h83v-632c0 -43 21 -75 56 -75h30v-73z" />
    <glyph glyph-name="less" unicode="&#x3c;" horiz-adv-x="507" 
d="M452 125l-397 201v79l397 202v-83l-310 -158l310 -159v-82z" />
    <glyph glyph-name="m" unicode="m" horiz-adv-x="930" 
d="M328 493c-68 0 -132 -31 -173 -78v-415h-83v556h72l10 -64c48 46 113 75 176 75c81 0 132 -32 162 -85c48 51 118 85 185 85c151 0 198 -111 198 -263v-304h-83v305c0 112 -42 188 -117 188c-62 0 -120 -25 -161 -65c10 -36 14 -78 14 -124v-304h-83v305
c0 112 -42 188 -117 188z" />
    <glyph glyph-name="mu" unicode="&#xb5;" horiz-adv-x="566" 
d="M439 0l-11 67c-48 -46 -113 -74 -175 -74c-49 0 -86 11 -115 32v-245h-83v776h83v-301c0 -112 42 -188 117 -188c68 0 131 30 173 77v412h83v-556h-72z" />
    <glyph glyph-name="mu" unicode="&#x3bc;" horiz-adv-x="566" 
d="M439 0l-11 67c-48 -46 -113 -74 -175 -74c-49 0 -86 11 -115 32v-245h-83v776h83v-301c0 -112 42 -188 117 -188c68 0 131 30 173 77v412h83v-556h-72z" />
    <glyph glyph-name="multiply" unicode="&#xd7;" horiz-adv-x="538" 
d="M483 184l-48 -49l-166 163l-166 -163l-48 49l165 162l-165 163l48 49l166 -164l166 164l48 -49l-165 -163z" />
    <glyph glyph-name="n" unicode="n" horiz-adv-x="583" 
d="M144 556l10 -64c48 46 113 75 176 75c151 0 198 -111 198 -263v-304h-83v305c0 112 -42 188 -117 188c-68 0 -132 -31 -173 -78v-415h-83v556h72z" />
    <glyph glyph-name="nine" unicode="9" horiz-adv-x="560" 
d="M279 272c-138 0 -230 92 -230 236c0 165 115 229 230 229c126 0 232 -64 232 -232c0 -47 -18 -111 -41 -146l-204 -359h-101l164 281c-12 -4 -30 -9 -50 -9zM279 662c-86 0 -147 -63 -147 -154c0 -85 43 -161 146 -161c97 0 149 80 149 160c0 83 -50 155 -148 155z" />
    <glyph glyph-name="numbersign" unicode="#" horiz-adv-x="705" 
d="M347 730l-39 -197h146l40 197h73l-40 -197h123v-70l-137 -1l-31 -158h119v-71l-133 -1l-46 -232h-73l46 232h-147l-46 -232h-73l46 232h-120v72h134l31 157h-117v72h131l39 197h74zM294 462l-32 -158h147l31 158h-146z" />
    <glyph glyph-name="o" unicode="o" horiz-adv-x="571" 
d="M285 566c131 0 241 -109 241 -289c0 -190 -110 -284 -241 -284c-130 0 -240 94 -240 284c0 180 109 289 240 289zM285 65c102 0 157 97 157 212c0 108 -54 215 -156 215c-103 0 -157 -104 -157 -214c0 -112 54 -213 156 -213z" />
    <glyph glyph-name="oacute" unicode="&#xf3;" horiz-adv-x="571" 
d="M285 566c131 0 241 -109 241 -289c0 -190 -110 -284 -241 -284c-130 0 -240 94 -240 284c0 180 109 289 240 289zM285 65c102 0 157 97 157 212c0 108 -54 215 -156 215c-103 0 -157 -104 -157 -214c0 -112 54 -213 156 -213zM280 818h89l-97 -136h-70z" />
    <glyph glyph-name="ocircumflex" unicode="&#xf4;" horiz-adv-x="571" 
d="M285 566c131 0 241 -109 241 -289c0 -190 -110 -284 -241 -284c-130 0 -240 94 -240 284c0 180 109 289 240 289zM285 65c102 0 157 97 157 212c0 108 -54 215 -156 215c-103 0 -157 -104 -157 -214c0 -112 54 -213 156 -213zM308 818l127 -164h-65l-85 107l-84 -108h-65
l127 165h45z" />
    <glyph glyph-name="odieresis" unicode="&#xf6;" horiz-adv-x="571" 
d="M285 566c131 0 241 -109 241 -289c0 -190 -110 -284 -241 -284c-130 0 -240 94 -240 284c0 180 109 289 240 289zM285 65c102 0 157 97 157 212c0 108 -54 215 -156 215c-103 0 -157 -104 -157 -214c0 -112 54 -213 156 -213zM212 758v-89h-80v89h80zM439 758v-89h-80v89
h80z" />
    <glyph glyph-name="oe" unicode="&#x153;" horiz-adv-x="961" 
d="M914 306v-38h-387c2 -149 66 -200 172 -200c80 0 142 18 193 47v-83c-50 -22 -119 -39 -195 -39c-92 0 -167 33 -211 105c-44 -70 -116 -105 -196 -105c-130 0 -240 94 -240 284c0 180 109 289 240 289c81 0 153 -41 197 -114c43 73 113 114 194 114
c131 0 233 -103 233 -260zM290 65c102 0 157 97 157 212c0 108 -54 215 -156 215c-103 0 -157 -104 -157 -214c0 -112 54 -213 156 -213zM531 331h304c-5 77 -72 162 -154 162c-84 0 -136 -73 -150 -162z" />
    <glyph glyph-name="ograve" unicode="&#xf2;" horiz-adv-x="571" 
d="M285 566c131 0 241 -109 241 -289c0 -190 -110 -284 -241 -284c-130 0 -240 94 -240 284c0 180 109 289 240 289zM285 65c102 0 157 97 157 212c0 108 -54 215 -156 215c-103 0 -157 -104 -157 -214c0 -112 54 -213 156 -213zM202 818h89l78 -136h-70z" />
    <glyph glyph-name="one" unicode="1" horiz-adv-x="560" 
d="M340 74h122v-74h-358v74h157v571l-163 -92v90l163 87h79v-656z" />
    <glyph glyph-name="onesuperior" unicode="&#xb9;" horiz-adv-x="380" 
d="M234 340h69v-48h-215v48h89v319l-88 -45v64l98 52h47v-390z" />
    <glyph glyph-name="ordmasculine" unicode="&#xba;" horiz-adv-x="427" 
d="M213 737c118 0 169 -95 169 -209s-51 -205 -169 -205s-168 91 -168 206c0 113 50 208 168 208zM213 371c108 0 110 106 110 157c0 68 -14 161 -109 161c-89 0 -110 -93 -110 -160c0 -52 4 -158 109 -158z" />
    <glyph glyph-name="otilde" unicode="&#xf5;" horiz-adv-x="571" 
d="M285 566c131 0 241 -109 241 -289c0 -190 -110 -284 -241 -284c-130 0 -240 94 -240 284c0 180 109 289 240 289zM285 65c102 0 157 97 157 212c0 108 -54 215 -156 215c-103 0 -157 -104 -157 -214c0 -112 54 -213 156 -213zM103 677c0 48 22 117 103 117
c79 0 106 -72 152 -72c38 0 56 41 56 72h55c0 -52 -49 -117 -109 -117c-101 0 -97 73 -158 73c-40 0 -46 -44 -46 -73h-53z" />
    <glyph glyph-name="p" unicode="p" horiz-adv-x="588" 
d="M300 566c134 0 243 -108 243 -285c0 -192 -109 -288 -244 -288c-50 0 -100 13 -141 41v-254h-83v776h68l13 -44c41 39 90 54 144 54zM292 494c-63 0 -108 -23 -134 -61v-318c30 -32 81 -48 140 -48c111 0 161 96 161 212c0 106 -55 215 -167 215z" />
    <glyph glyph-name="paragraph" unicode="&#xb6;" horiz-adv-x="607" 
d="M264 730h66v-439h-65c-122 0 -220 80 -220 219c0 137 97 219 219 220zM562 730v-58h-65v-785h-68v843h133z" />
    <glyph glyph-name="parenleft" unicode="(" horiz-adv-x="409" 
d="M354 -115h-103s-196 154 -196 443c0 287 196 452 196 452h103s-218 -171 -218 -450c0 -281 218 -445 218 -445z" />
    <glyph glyph-name="parenright" unicode=")" horiz-adv-x="409" 
d="M158 -115h-103s218 164 218 445c0 279 -218 450 -218 450h103s196 -165 196 -452c0 -289 -196 -443 -196 -443z" />
    <glyph glyph-name="percent" unicode="%" horiz-adv-x="914" 
d="M223 739c85 0 168 -64 168 -202c0 -139 -83 -199 -168 -199c-86 0 -168 60 -168 199c0 138 82 202 168 202zM691 394c87 0 168 -64 168 -203c0 -137 -83 -198 -168 -198s-168 61 -168 198c0 139 83 203 168 203zM251 0l339 730h70l-339 -730h-70zM691 48
c85 0 104 62 104 143c0 78 -16 146 -104 146c-85 0 -105 -66 -105 -145c0 -80 20 -144 105 -144zM223 393c85 0 105 61 105 144c0 77 -19 145 -104 145c-86 0 -105 -66 -105 -145c0 -80 18 -144 104 -144z" />
    <glyph glyph-name="period" unicode="." horiz-adv-x="286" 
d="M194 112v-112h-102v112h102z" />
    <glyph glyph-name="plus" unicode="+" horiz-adv-x="662" 
d="M289 67v244h-234v80h234v236h75v-236h243v-80h-243v-244h-75z" />
    <glyph glyph-name="plusminus" unicode="&#xb1;" horiz-adv-x="700" 
d="M308 192v234h-234v80h234v226h75v-226h243v-80h-243v-234h-75zM626 78h-552v80h552v-80z" />
    <glyph glyph-name="q" unicode="q" horiz-adv-x="585" 
d="M288 566c53 0 103 -15 143 -54l14 44h68v-776h-83v254c-41 -28 -91 -41 -141 -41c-135 0 -244 96 -244 288c0 177 109 285 243 285zM296 494c-112 0 -167 -109 -167 -215c0 -116 50 -212 161 -212c58 0 109 16 140 48v318c-27 38 -72 61 -134 61z" />
    <glyph glyph-name="question" unicode="?" horiz-adv-x="483" 
d="M206 162v113l112 147c24 32 53 79 53 113c0 71 -51 118 -124 118c-70 0 -122 -60 -122 -127h-84c0 96 60 211 208 211c129 0 206 -104 206 -198c0 -53 -31 -101 -55 -137l-110 -146v-94h-84zM293 0v100h-90v-100h90z" />
    <glyph glyph-name="quotedbl" unicode="&#x22;" horiz-adv-x="392" 
d="M63 780h97l-20 -214h-57zM232 780h97l-20 -214h-57z" />
    <glyph glyph-name="quotedblleft" unicode="&#x201c;" horiz-adv-x="454" 
d="M157 566h-97l100 214h57zM331 566h-97l100 214h57z" />
    <glyph glyph-name="quotedblright" unicode="&#x201d;" horiz-adv-x="454" 
d="M294 780h97l-100 -214h-57zM120 780h97l-100 -214h-57z" />
    <glyph glyph-name="quoteleft" unicode="&#x2018;" horiz-adv-x="280" 
d="M157 566h-97l100 214h57z" />
    <glyph glyph-name="quoteright" unicode="&#x2019;" horiz-adv-x="280" 
d="M123 780h97l-100 -214h-57z" />
    <glyph glyph-name="quotesingle" unicode="'" horiz-adv-x="223" 
d="M63 780h97l-20 -214h-57z" />
    <glyph glyph-name="r" unicode="r" horiz-adv-x="410" 
d="M72 0v556h68l15 -132c23 47 82 142 144 142c33 0 58 -4 81 -11v-77s-34 9 -68 9c-54 0 -114 -96 -157 -182v-305h-83z" />
    <glyph glyph-name="registered" unicode="&#xae;" horiz-adv-x="849" 
d="M424 730c202 0 365 -164 365 -365c0 -202 -163 -365 -365 -365c-201 0 -364 163 -364 365c0 201 163 365 364 365zM424 61c169 0 304 135 304 304c0 168 -135 304 -304 304c-168 0 -303 -136 -303 -304c0 -169 135 -304 303 -304zM583 161l-105 181c50 15 84 60 84 111
c0 63 -49 111 -118 111h-146v-403h55v176h74l101 -176h55zM444 389h-91v124h88c41 -1 67 -23 67 -61c0 -39 -21 -61 -64 -63z" />
    <glyph glyph-name="s" unicode="s" horiz-adv-x="517" 
d="M40 40v89c42 -36 135 -63 204 -63c89 0 153 34 153 97c0 54 -50 88 -144 88c-139 0 -210 49 -210 151c0 94 79 167 207 167c65 0 143 -16 186 -38v-83c-45 31 -129 50 -187 50c-78 0 -127 -38 -127 -92c0 -46 26 -84 147 -84c131 0 208 -57 208 -158
c0 -107 -93 -171 -232 -171c-70 0 -157 20 -205 47z" />
    <glyph glyph-name="section" unicode="&#xa7;" horiz-adv-x="513" 
d="M70 -170v83c45 -32 140 -61 196 -61c48 0 111 23 111 93c0 48 -39 84 -97 101l-79 22c-91 26 -151 99 -151 191c0 86 52 142 108 169c-59 27 -95 66 -95 142c0 99 81 168 185 168c80 0 140 -19 197 -49l2 -81c-64 36 -131 60 -199 60c-58 0 -108 -31 -108 -97
c0 -54 41 -82 93 -97l89 -22c90 -26 141 -98 141 -191c0 -84 -52 -144 -107 -171c59 -22 100 -68 100 -144c0 -104 -94 -166 -197 -166c-54 0 -143 21 -189 50zM258 134c75 0 126 48 126 126c0 77 -40 129 -126 129c-75 0 -129 -47 -129 -129c0 -84 49 -123 129 -126z" />
    <glyph glyph-name="semicolon" unicode=";" horiz-adv-x="282" 
d="M222 506v-112h-102v112h102zM123 108h97l-100 -214h-57z" />
    <glyph glyph-name="seven" unicode="7" horiz-adv-x="560" 
d="M511 648l-283 -648h-87l282 648h-287v-87h-79v164h454v-77z" />
    <glyph glyph-name="six" unicode="6" horiz-adv-x="560" 
d="M282 468c136 0 227 -94 227 -241c0 -168 -112 -234 -230 -234c-129 0 -232 66 -232 237c0 47 21 116 44 151l201 349h101l-161 -271c12 4 30 9 50 9zM279 68c88 0 147 65 147 159c0 87 -38 166 -143 166c-99 0 -152 -83 -152 -165c0 -86 48 -160 148 -160z" />
    <glyph glyph-name="slash" unicode="/" horiz-adv-x="488" 
d="M389 780h83l-382 -895h-81z" />
    <glyph glyph-name="space" unicode=" " horiz-adv-x="290" 
 />
    <glyph glyph-name="sterling" unicode="&#xa3;" horiz-adv-x="616" 
d="M415 419v-79h-165c6 -26 10 -50 10 -73c0 -60 -19 -114 -47 -160c10 1 23 1 35 1c78 0 111 -48 179 -48c35 0 77 32 105 67l44 -54c-33 -36 -104 -92 -154 -92c-75 0 -108 54 -194 54c-23 0 -72 -5 -147 -45l-31 68c56 26 69 32 90 61c25 40 40 92 40 144
c0 26 -4 51 -9 77h-84v79h66c-8 35 -15 70 -15 107c0 134 85 217 209 217c71 0 143 -45 183 -100l-54 -58c-34 43 -76 80 -131 80c-64 0 -127 -38 -127 -137c0 -37 6 -74 14 -109h183z" />
    <glyph glyph-name="t" unicode="t" horiz-adv-x="412" 
d="M378 83v-77c-19 -4 -57 -13 -108 -13c-107 0 -162 62 -162 177v313h-60v73h60v144h83v-144h155v-73h-155v-306c0 -77 35 -110 86 -110c43 0 77 7 101 16z" />
    <glyph glyph-name="thorn" unicode="&#xfe;" horiz-adv-x="627" 
d="M341 577c131 0 241 -109 241 -289c0 -190 -110 -284 -241 -284c-54 0 -104 16 -145 48v-272h-76v999h76v-256c38 34 93 54 145 54zM341 76c102 0 157 97 157 212c0 108 -54 215 -156 215c-103 0 -157 -104 -157 -214c0 -112 54 -213 156 -213z" />
    <glyph glyph-name="three" unicode="3" horiz-adv-x="561" 
d="M96 730h397v-77l-195 -213h7c119 0 212 -78 212 -227c0 -136 -98 -220 -252 -220c-138 0 -221 75 -221 193h80c0 -77 76 -119 152 -119c90 0 160 57 160 146c0 95 -60 155 -143 155c-51 0 -83 -10 -103 -20l-27 64l225 241h-292v77z" />
    <glyph glyph-name="threesuperior" unicode="&#xb3;" horiz-adv-x="380" 
d="M79 730h239v-55l-120 -120h7c72 0 128 -47 128 -137c0 -82 -59 -133 -152 -133c-83 0 -133 45 -133 117h54c0 -47 40 -66 86 -66c54 0 90 28 90 82c0 57 -30 87 -80 87c-31 0 -46 -2 -58 -8l-23 43l129 135h-167v55z" />
    <glyph glyph-name="trademark" unicode="&#x2122;" horiz-adv-x="828" 
d="M402 730h57l121 -250l121 250h57v-383h-55v277l-96 -190h-55l-97 192v-279h-53v383zM226 347h-61v332h-115v51h292v-51h-116v-332z" />
    <glyph glyph-name="two" unicode="2" horiz-adv-x="560" 
d="M504 77v-77h-453v77l308 330c40 46 52 72 52 111c0 65 -49 138 -138 138c-83 0 -135 -75 -135 -148h-86c0 97 66 227 221 227c138 0 223 -95 223 -215c0 -59 -19 -100 -74 -158l-267 -285h349z" />
    <glyph glyph-name="twosuperior" unicode="&#xb2;" horiz-adv-x="380" 
d="M326 344v-48h-272v48l184 195c24 27 32 43 32 66c0 39 -28 81 -81 81c-50 0 -79 -43 -79 -87h-53c0 58 39 136 132 136c83 0 132 -57 132 -129c0 -35 -10 -59 -42 -93l-160 -169h207z" />
    <glyph glyph-name="u" unicode="u" horiz-adv-x="566" 
d="M439 0l-11 67c-48 -46 -113 -74 -175 -74c-151 0 -198 111 -198 263v300h83v-301c0 -112 42 -188 117 -188c68 0 131 30 173 77v412h83v-556h-72z" />
    <glyph glyph-name="uacute" unicode="&#xfa;" horiz-adv-x="566" 
d="M439 0l-11 67c-48 -46 -113 -74 -175 -74c-151 0 -198 111 -198 263v300h83v-301c0 -112 42 -188 117 -188c68 0 131 30 173 77v412h83v-556h-72zM279 814h89l-97 -136h-70z" />
    <glyph glyph-name="ucircumflex" unicode="&#xfb;" horiz-adv-x="566" 
d="M439 0l-11 67c-48 -46 -113 -74 -175 -74c-151 0 -198 111 -198 263v300h83v-301c0 -112 42 -188 117 -188c68 0 131 30 173 77v412h83v-556h-72zM307 814l127 -164h-65l-85 107l-84 -108h-65l127 165h45z" />
    <glyph glyph-name="udieresis" unicode="&#xfc;" horiz-adv-x="566" 
d="M439 0l-11 67c-48 -46 -113 -74 -175 -74c-151 0 -198 111 -198 263v300h83v-301c0 -112 42 -188 117 -188c68 0 131 30 173 77v412h83v-556h-72zM438 754v-89h-80v89h80zM211 754v-89h-80v89h80z" />
    <glyph glyph-name="ugrave" unicode="&#xf9;" horiz-adv-x="566" 
d="M439 0l-11 67c-48 -46 -113 -74 -175 -74c-151 0 -198 111 -198 263v300h83v-301c0 -112 42 -188 117 -188c68 0 131 30 173 77v412h83v-556h-72zM201 814h89l78 -136h-70z" />
    <glyph glyph-name="underscore" unicode="_" horiz-adv-x="671" 
d="M671 -42v-61h-671v61h671z" />
    <glyph glyph-name="v" unicode="v" horiz-adv-x="560" 
d="M240 0l-210 556h88l165 -445l168 445h79l-212 -556h-78z" />
    <glyph glyph-name="w" unicode="w" horiz-adv-x="815" 
d="M785 556l-176 -556h-76l-126 430l-125 -430h-76l-176 556h86l132 -439l120 439h79l120 -439l132 439h86z" />
    <glyph glyph-name="x" unicode="x" horiz-adv-x="575" 
d="M439 0l-155 224l-2 3l-2 -3l-155 -224h-95l205 288l-193 266h98l140 -204l1 -2l3 3l143 203h95l-197 -264l213 -290h-99z" />
    <glyph glyph-name="y" unicode="y" horiz-adv-x="554" 
d="M524 556l-275 -678c-23 -68 -75 -98 -150 -98h-36v73h25c50 0 79 11 100 64l48 120l-204 519h88l155 -423l171 423h78z" />
    <glyph glyph-name="yacute" unicode="&#xfd;" horiz-adv-x="554" 
d="M524 556l-275 -678c-23 -68 -75 -98 -150 -98h-36v73h25c50 0 79 11 100 64l48 120l-204 519h88l155 -423l171 423h78zM272 844h89l-97 -136h-70z" />
    <glyph glyph-name="ydieresis" unicode="&#xff;" horiz-adv-x="554" 
d="M524 556l-275 -678c-23 -68 -75 -98 -150 -98h-36v73h25c50 0 79 11 100 64l48 120l-204 519h88l155 -423l171 423h78zM430 754v-89h-80v89h80zM203 754v-89h-80v89h80z" />
    <glyph glyph-name="yen" unicode="&#xa5;" horiz-adv-x="659" 
d="M536 248v-80h-168v-168h-85v168h-160v80h160v114h-160v80h86l-174 288h96l199 -326l203 326h91l-180 -288h92v-80h-168v-114h168z" />
    <glyph glyph-name="z" unicode="z" horiz-adv-x="518" 
d="M72 556l400 -1v-70l-330 -413h333v-72h-420v72l329 412h-312v72z" />
    <glyph glyph-name="zero" unicode="0" horiz-adv-x="561" 
d="M280 735c180 0 258 -170 258 -374s-78 -368 -258 -368s-257 164 -257 370c0 202 77 372 257 372zM102 363c0 -44 3 -112 24 -172l281 402c-26 40 -66 68 -125 68c-163 0 -180 -208 -180 -298zM280 67c164 0 180 203 180 294c0 41 -4 106 -22 164l-278 -395h-3
c26 -38 65 -63 123 -63z" />
    <glyph glyph-name="cent" unicode="&#xa2;" horiz-adv-x="515" 
d="M311 135v-135h-61v137c-140 16 -205 119 -205 285c0 156 88 263 205 282v104h61v-101c63 -5 120 -34 162 -81l-60 -55c-22 27 -55 54 -102 60v-422c48 5 87 28 108 55l58 -58c-40 -44 -102 -67 -166 -71zM128 423c0 -110 43 -190 122 -210v414
c-79 -20 -122 -100 -122 -204z" />
    <glyph glyph-name="ntilde" unicode="&#xf1;" horiz-adv-x="583" 
d="M120 677c0 48 22 117 103 117c79 0 106 -72 152 -72c38 0 56 41 56 72h55c0 -52 -49 -117 -109 -117c-101 0 -97 73 -158 73c-40 0 -46 -44 -46 -73h-53zM144 556l10 -64c48 46 113 75 176 75c151 0 198 -111 198 -263v-304h-83v305c0 112 -42 188 -117 188
c-68 0 -132 -31 -173 -78v-415h-83v556h72z" />
    <glyph glyph-name="Ccedilla" unicode="&#xc7;" horiz-adv-x="644" 
d="M352 -2l78 20s18 -58 16 -117c-2 -60 -46 -92 -80 -107c-34 -16 -121 -20 -121 -20v65s48 0 72 8c23 8 47 28 47 64c0 35 -12 87 -12 87zM540 172l64 -63c-57 -85 -152 -116 -245 -116c-156 0 -307 93 -307 372c0 253 151 374 307 374c122 0 191 -43 244 -128l-64 -56
c-35 61 -96 104 -178 104c-157 0 -224 -143 -224 -294c0 -156 66 -292 222 -292c84 0 147 39 181 99z" />
    <glyph glyph-name="ccedilla" unicode="&#xe7;" horiz-adv-x="525" 
d="M273 -1l78 20s18 -58 16 -117c-2 -60 -46 -92 -80 -107c-34 -16 -121 -20 -121 -20v65s48 0 72 8c23 8 47 28 47 64c0 35 -12 87 -12 87zM429 122l58 -58c-44 -49 -120 -71 -192 -71c-167 0 -250 106 -250 287c0 174 114 286 250 286c72 0 142 -30 188 -82l-60 -55
c-25 31 -69 62 -126 62c-105 0 -169 -88 -169 -210c0 -127 63 -215 167 -215c58 0 110 25 134 56z" />
    <glyph glyph-name="questiondown" unicode="&#xbf;" horiz-adv-x="483" 
d="M206 330v-113l112 -147c24 -32 53 -79 53 -113c0 -71 -51 -118 -124 -118c-70 0 -122 60 -122 127h-84c0 -96 60 -211 208 -211c129 0 206 104 206 198c0 53 -31 101 -55 137l-110 146v94h-84zM293 492v-100h-90v100h90z" />
    <glyph glyph-name="exclamdown" unicode="&#xa1;" horiz-adv-x="280" 
d="M102 -220h92l-6 547h-80zM197 510v-112h-102v112h102z" />
    <glyph glyph-name="Scaron" unicode="&#x160;" horiz-adv-x="614" 
d="M439 931l-127 -164h-45l-127 165h65l84 -108l85 107h65zM291 -5c177 0 278 85 278 220c0 120 -111 186 -255 202c-126 14 -179 55 -179 118c0 70 69 125 161 125c71 0 154 -27 224 -85v90c-55 44 -117 74 -222 74c-143 0 -246 -82 -246 -212s107 -177 247 -190
c113 -10 186 -58 186 -124c0 -82 -76 -136 -195 -136c-97 0 -185 44 -245 106v-98c60 -58 137 -90 246 -90z" />
    <glyph glyph-name="scaron" unicode="&#x161;" horiz-adv-x="517" 
d="M390 815l-127 -164h-45l-127 165h65l84 -108l85 107h65zM40 129v-89c48 -27 135 -47 205 -47c139 0 232 64 232 171c0 101 -77 158 -208 158c-121 0 -147 38 -147 84c0 54 49 92 127 92c58 0 142 -19 187 -50v83c-43 22 -121 38 -186 38c-128 0 -207 -73 -207 -167
c0 -102 71 -151 210 -151c94 0 144 -34 144 -88c0 -63 -64 -97 -153 -97c-69 0 -162 27 -204 63z" />
    <glyph glyph-name="tilde" unicode="&#x2dc;" horiz-adv-x="516" 
d="M75 818c0 48 22 117 103 117c79 0 106 -72 152 -72c38 0 56 41 56 72h55c0 -52 -49 -117 -109 -117c-101 0 -97 73 -158 73c-40 0 -46 -44 -46 -73h-53z" />
    <glyph glyph-name="cedilla" unicode="&#xb8;" horiz-adv-x="352" 
d="M182 -1l78 20s18 -58 16 -117c-2 -60 -46 -92 -80 -107c-34 -16 -121 -20 -121 -20v65s48 0 72 8c23 8 47 28 47 64c0 35 -12 87 -12 87z" />
    <glyph glyph-name="acute" unicode="&#xb4;" horiz-adv-x="317" 
d="M153 930h89l-97 -136h-70z" />
    <glyph glyph-name="periodcentered" unicode="&#xb7;" horiz-adv-x="833" 
 />
    <glyph glyph-name="circumflex" unicode="&#x2c6;" horiz-adv-x="449" 
d="M247 947l127 -164h-65l-85 107l-84 -108h-65l127 165h45z" />
    <glyph glyph-name="Zcaron" unicode="&#x17d;" horiz-adv-x="583" 
d="M439 931l-127 -164h-45l-127 165h65l84 -108l85 107h65zM40 78v-78h503v78h-413l413 574v78h-503v-78h409z" />
    <glyph glyph-name="zcaron" unicode="&#x17e;" horiz-adv-x="530" 
d="M411 815l-127 -164h-45l-127 165h65l84 -108l85 107h65zM72 556l400 -1v-70l-330 -413h333v-72h-420v72l329 412h-312v72z" />
    <glyph glyph-name="onehalf" unicode="&#xbd;" horiz-adv-x="887" 
d="M650 730l-382 -730h-74l381 730h75zM812 56v-55h-265v55l172 188c21 21 27 32 27 60c0 35 -19 71 -67 71c-46 0 -70 -37 -70 -77h-59c0 59 41 133 129 133c78 0 129 -62 129 -127c0 -34 -10 -57 -41 -90l-148 -158h193zM220 305h-58v353l-87 -45v65l98 52h47v-425z" />
    <glyph glyph-name="onequarter" unicode="&#xbc;" horiz-adv-x="908" 
d="M783 0h-55v108h-201v53l201 265v1h55v-266h50v-53h-50v-108zM650 730l-382 -730h-74l381 730h75zM220 305h-58v353l-87 -45v65l98 52h47v-425zM594 161h134v178z" />
    <glyph glyph-name="threequarters" unicode="&#xbe;" horiz-adv-x="988" 
d="M863 0h-55v108h-201v53l201 265v1h55v-266h50v-53h-50v-108zM730 730l-382 -730h-74l381 730h75zM160 506l-18 38l1 1l125 134h-163v51h230v-51l-108 -113c69 -1 122 -51 122 -136c0 -79 -56 -127 -146 -127c-80 0 -128 43 -128 111h51c0 -44 40 -65 84 -65
c52 0 88 29 88 81c0 55 -28 90 -77 90c-29 0 -49 -8 -61 -14zM674 161h134v178z" />
    <glyph glyph-name="uni00A0" unicode="&#xa0;" horiz-adv-x="0" 
 />
    <glyph glyph-name="dieresis" unicode="&#xa8;" horiz-adv-x="457" 
d="M155 921v-89h-80v89h80zM382 921v-89h-80v89h80z" />
    <glyph glyph-name="brokenbar" unicode="&#xa6;" horiz-adv-x="833" 
 />
    <glyph glyph-name="perthousand" unicode="&#x2030;" horiz-adv-x="1300" 
d="M223 739c85 0 168 -64 168 -202c0 -139 -83 -199 -168 -199c-86 0 -168 60 -168 199c0 138 82 202 168 202zM691 394c87 0 168 -64 168 -203c0 -137 -83 -198 -168 -198s-168 61 -168 198c0 139 83 203 168 203zM1077 394c87 0 168 -64 168 -203
c0 -137 -83 -198 -168 -198s-168 61 -168 198c0 139 83 203 168 203zM251 0l339 730h70l-339 -730h-70zM691 48c85 0 104 62 104 143c0 78 -16 146 -104 146c-85 0 -105 -66 -105 -145c0 -80 20 -144 105 -144zM1077 48c85 0 104 62 104 143c0 78 -16 146 -104 146
c-85 0 -105 -66 -105 -145c0 -80 20 -144 105 -144zM223 393c85 0 105 61 105 144c0 77 -19 145 -104 145c-86 0 -105 -66 -105 -145c0 -80 18 -144 104 -144z" />
    <glyph glyph-name="A" unicode="A" horiz-adv-x="702" 
d="M667 0h-97l-64 179h-316l-63 -179h-92l272 730h90zM348 623l-129 -364h259z" />
  </font>
</defs>
</svg>
